<svg width="183" height="76" viewBox="0 0 183 76" fill="none" xmlns="http://www.w3.org/2000/svg">
<path d="M107.78 10.9785C92.6151 10.9785 80.2902 23.1561 80.2902 38.1697C80.2902 53.1876 92.6151 65.3609 107.78 65.3609C122.945 65.3609 135.27 53.1876 135.27 38.1739C135.27 23.1561 122.945 10.9785 107.78 10.9785ZM107.78 59.9875C95.6026 59.9875 85.9666 50.2 85.9666 38.1739C85.9666 26.1479 95.6026 16.3604 107.78 16.3604C119.958 16.3604 129.594 26.1479 129.594 38.1739C129.594 50.2 119.954 59.9875 107.78 59.9875Z" fill="white"/>
<path d="M145.912 18.1236L150.713 65.3862H159.709L164.511 18.1236L166.951 58.3717L167.486 65.3862H173.124L169.468 12.0264H159.482L158.186 23.0804L155.211 58.2202L152.241 23.0804L150.944 12.0264H140.959L137.298 65.3862H142.941L143.471 58.3717L145.912 18.1236Z" fill="white"/>
<path d="M4.65389 71.2607V5.08359H12.2196V0.429688H0V75.9146H31.7441V71.2607H4.65389Z" fill="white"/>
<path d="M42.2891 71.2607H36.1582H36.1329V75.9146H36.1582H42.4153V71.2607H42.2891Z" fill="white"/>
<path d="M29.7075 0.429688V5.08359H178.346V71.2607H84.5781H80.3534H74.6433H65.79H60.2398H58.2663H54.5802H46.8293V75.9146H54.5802H58.2663H60.2398H65.79H74.6433H80.3534H84.5781H183V0.429688H29.7075Z" fill="white"/>
<path d="M49.7117 68.0369C65.4365 68.0369 78.2579 55.3755 78.2579 39.8106C78.2579 25.3271 67.1491 13.3684 52.9349 11.7778C52.9349 11.7778 39.2215 11.7778 39.2215 11.7862C39.1668 11.7862 39.1163 11.7778 39.0616 11.7778H36.154V33.3473V51.6641H42.2848V33.3473V21.3717V17.4542C46.0214 17.4542 50.4018 16.823 54.0206 17.7446C56.8693 18.4683 59.4697 19.1626 61.9776 20.7448C64.0395 22.045 65.8615 23.7113 67.3595 25.6301C70.4944 29.6528 72.127 34.7191 72.127 39.8064C72.127 51.176 63.9006 61.2581 52.9349 62.0618V57.1217H51.6431H46.8041H45.9625H30.4649C30.4649 57.1217 24.8222 7.82662 24.8264 7.82662L24.4645 4.65389L24.0017 0.626967L23.9301 0H23.2569H18.704H18.0349H17.9255V0.942557L17.5005 4.65389L17.1386 7.82662C16.5538 12.9518 15.9646 18.077 15.3798 23.2022C14.3067 32.5815 13.2337 41.9566 12.1607 51.3317C12.0177 52.4594 10.7932 65.3733 10.9152 65.3902C10.8184 66.2696 10.7174 67.1491 10.6165 68.0285H16.1456L16.7431 62.4994C16.7431 62.4994 18.7334 62.4994 18.7334 62.5036H25.1083L25.7816 68.0285H31.3107L31.0919 66.1181L30.6795 62.5036H31.0793H45.9625H46.8041V68.0285H49.7117V68.0369ZM18.7292 57.1301H17.4122L20.9215 22.0197L24.5066 57.1301H18.7292Z" fill="white"/>
</svg>
